<?xml version="1.0" encoding="utf-8"?>
<!-- Generator: Adobe Illustrator 23.0.6, SVG Export Plug-In . SVG Version: 6.00 Build 0)  -->
<svg version="1.1" id="Layer_1" xmlns="http://www.w3.org/2000/svg" xmlns:xlink="http://www.w3.org/1999/xlink" x="0px" y="0px"
	 viewBox="0 0 800 800" style="enable-background:new 0 0 800 800;" xml:space="preserve">
<style type="text/css">
	.st0{clip-path:url(#SVGID_2_);}
	.st1{fill-rule:evenodd;clip-rule:evenodd;fill:#003F5A;}
	.st2{fill-rule:evenodd;clip-rule:evenodd;fill:#F79B68;}
	.st3{fill-rule:evenodd;clip-rule:evenodd;fill:#EF5174;}
	.st4{fill-rule:evenodd;clip-rule:evenodd;fill:#007B7B;}
	.st5{fill-rule:evenodd;clip-rule:evenodd;fill:#04303C;}
	.st6{fill-rule:evenodd;clip-rule:evenodd;fill:#9D6447;}
	.st7{fill-rule:evenodd;clip-rule:evenodd;fill:#7C2E43;}
	.st8{fill-rule:evenodd;clip-rule:evenodd;fill:#073A39;}
	.st9{fill-rule:evenodd;clip-rule:evenodd;fill:#FFFFFF;}
	.st10{fill:#231F20;}
	.st11{font-family:'BanglaMN';}
	.st12{font-size:72.6541px;}
</style>
<g>
	<g>
		<defs>
			<path id="SVGID_1_" d="M209.21,125.11c0,0,57.94,36.02,187.93-29.75c0,0,131.56,68.9,191.06,25.05l0.79,50.12l-126,90.88
				l126.29,90.28l0.94,87.35L399.77,575.12l-191.37-134.3L209.21,125.11z"/>
		</defs>
		<clipPath id="SVGID_2_">
			<use xlink:href="#SVGID_1_"  style="overflow:visible;"/>
		</clipPath>
		<g class="st0">
			<path class="st1" d="M207.85,439.25c-0.01-30.32-0.03-60.66-0.03-90.99c12.14-11.45,26.49-19.93,39.98-29.45
				c53.16-37.53,106.18-75.23,159.49-112.5c45.02-31.46,89.48-63.73,134.82-94.8c13.86-9.52,27.58-19.32,41.16-29.32
				c1.45-1.06,2.71-2.43,4.67-2.6c2.5,2.02,1.27,4.84,1.3,7.26c0.08,25.47-0.14,50.9,0.19,76.38c0.06,5.4-1.87,8.39-6.05,11.31
				c-40.39,28.32-80.63,56.82-120.89,85.29c-2.05,3.85-5.8,5.77-9.15,8.12c-18.59,12.91-37.02,26.07-55.47,39.21
				c-20.86,14.35-41.46,29.09-62.08,43.77c-20.92,15.55-42.52,30.14-63.62,45.46c-19.52,14.2-39.63,27.6-59,42
				C211.53,439.54,209.85,440.28,207.85,439.25z"/>
			<path class="st2" d="M587.94,79.59c-4.18,6.69-11.35,9.69-17.38,13.96c-49.58,35.36-99.32,70.47-149.09,105.55
				c-35.86,25.27-71.88,50.29-107.74,75.56c-32.9,23.15-65.63,46.54-98.54,69.68c-2.22,1.55-4.23,3.98-7.37,3.92
				c0.02-30.14,0.03-60.27,0.04-90.41c1.79-2.61,4.03-4.72,6.65-6.47c56.23-38.44,111.24-78.63,167.11-117.57
				c24.01-16.74,48.03-33.48,71.68-50.71c2.29-1.64,4.33-3.83,7.51-3.53c13.61-7.46,25.52-17.43,38.29-26.1
				c11.09-7.55,21.92-15.44,32.9-23.16c2.29-1.57,4.11-3.77,7.2-0.6C555.31,46.45,571.66,62.99,587.94,79.59z"/>
			<path class="st3" d="M460.81,79.57c-27.45,20.98-56.21,40.18-84.4,60.17c-55.14,39.13-110.43,78.01-165.7,116.97
				c-0.82,0.58-1.89,0.77-2.85,1.14c-0.01-29.74-0.01-59.47-0.01-89.23c8.79-8.49,19.29-14.66,29.14-21.64
				c30.07-21.35,60.31-42.48,90.24-64.04c2.4-1.73,4.99-2.59,7.77-3.14c23-16.23,46.09-32.37,68.93-48.84
				c4.21-3.04,6.6-2.9,10.2,0.87C429.52,47.92,445.23,63.68,460.81,79.57z"/>
			<path class="st4" d="M207.85,439.25c1.4-0.6,2.81-1.17,4.2-1.78c23.69-13.11,49.02-22.44,73.99-32.59
				c0.78-0.13,1.55-0.14,2.32-0.05c7.67,3.34,13.68,9.21,20.48,13.88c51.85,35.53,102.6,72.7,154.39,108.34
				c0.42,0.29,0.67,0.77,0.93,1.23c-20.49,14.51-41,28.88-61.31,43.58c-4.06,2.92-6.53,1-9.57-1.16
				c-47.6-33.55-95.24-67-142.79-100.59C236.15,460,222.07,449.56,207.85,439.25z"/>
			<path class="st3" d="M464.15,528.28c-9.91-2.91-17.21-10.09-25.41-15.72c-22.34-15.31-44.27-31.27-66.36-46.96
				c-28-19.85-55.98-39.69-83.97-59.54c-0.1-3.57,3.08-3.83,5.19-4.74c23.88-10.13,47.59-20.69,71.68-30.3
				c0.76-0.16,1.54-0.18,2.3-0.03c18.95,12.12,37.05,25.45,55.42,38.4c32.35,22.75,64.7,45.51,96.8,68.56
				c2.49,1.78,5.56,3.01,6.22,6.56C505.39,499.11,484.75,513.69,464.15,528.28z"/>
			<path class="st2" d="M526.03,484.51c-37.34-26.36-74.65-52.68-111.95-79.05c-15.57-11.04-31.07-22.18-46.59-33.24
				c0.3-2.49,2.24-3.37,4.14-4.15c24.29-9.98,48.08-21.19,72.7-30.38c0.75-0.14,1.53-0.15,2.34-0.06
				c9.59,4.13,17.45,11.11,25.78,17.1c35.98,25.89,72.57,50.87,108.53,76.77c3.15,2.3,7.59,3.86,7.09,9.18
				C567.85,455.96,547.04,470.39,526.03,484.51z"/>
			<path class="st1" d="M588.07,440.66c-5.33-7.69-13.76-11.54-21-16.76c-31.25-22.59-63.42-43.89-94.31-67.02
				c-8.44-6.3-17.31-12.01-25.98-18.01c-0.29-3.27,2.52-3.62,4.43-4.43c22.78-9.42,45.25-19.6,68.12-28.85
				c1.68-0.69,3.42-1.08,5.23-1.12c20.5,14.35,41.03,28.73,61.54,43.06c2.05,1.4,3.25,3.01,3.25,5.71
				c0.05,28.06,0.22,56.16,0.33,84.22C589.69,438.77,589.47,440.04,588.07,440.66z"/>
			<path class="st4" d="M335,79.8c-40.58,28.67-81.18,57.35-121.77,86.01c-1.65,1.18-3.07,2.85-5.38,2.81
				c-0.09-28.33-0.12-56.66-0.34-84.98c-0.04-3.43,1.68-5.22,4.07-6.89c21.98-15.47,44.1-30.76,65.87-46.51
				c4.1-2.96,5.73-1.02,8.2,1.49c14.17,14.38,28.43,28.71,42.7,43.02C330.32,76.75,331.89,79.3,335,79.8z"/>
			<path class="st5" d="M524.57,304.48c-15.69,8.74-32.77,14.35-49.01,21.84c-9.51,4.39-19.2,8.38-28.78,12.56
				c-0.54-0.05-1.04-0.11-1.56-0.18c-5.26-0.39-8.67-4.3-12.56-7.06c-11.93-8.49-24.48-16.11-35.66-25.62
				c19.43-13.95,38.88-27.9,58.36-41.81c2.26-1.62,4.76-2.94,7.13-4.39C483.18,274.72,503.87,289.57,524.57,304.48z"/>
			<path class="st6" d="M397,306.01c5.28-0.71,7.49,4.08,10.96,6.46c12.55,8.54,24.84,17.44,37.26,26.24
				c-24.52,10.47-49.08,20.95-73.61,31.46c-1.4,0.6-2.75,1.35-4.13,2.05c-0.45-0.11-0.87-0.15-1.34-0.15
				c-11.63-5.62-22.3-12.63-31.2-22.21c10.9-9.35,23.11-16.86,34.73-25.2C378.64,318.22,387.88,312.22,397,306.01z"/>
			<path class="st7" d="M334.95,349.86c10.4,7.42,20.8,14.82,31.2,22.21c-25.06,10.82-50.11,21.61-75.15,32.44
				c-0.92,0.38-1.73,1.04-2.58,1.56c-0.51-0.04-1.03-0.08-1.56-0.15c-6.6-1.54-11.2-6.03-15.59-10.79
				C292.51,380.04,313.73,364.96,334.95,349.86z"/>
			<path class="st8" d="M271.27,395.13c6.18,2.14,10.42,7.17,15.59,10.79c-24.94,10.53-49.87,21.04-74.81,31.56
				c13.02-11.09,27.59-20.02,41.36-30.07C259.26,403.16,265.32,399.19,271.27,395.13z"/>
			<rect x="208.51" y="22.81" class="st9" width="382.61" height="58.6"/>
			<path class="st9" d="M338.73,31.27c10.9,39.78,78.96,83.53,152.01,97.77c73.07,14.19,123.44-6.51,112.51-46.27
				C592.38,43,524.27-0.76,451.26-14.98C378.17-29.19,327.8-8.47,338.73,31.27z"/>
			<path class="st9" d="M455.02,31.06c-11.32,39.32-79.14,83.36-151.49,98.38c-72.33,15.02-121.8-4.67-110.46-43.98
				c11.3-39.31,79.12-83.36,151.44-98.38C416.87-27.92,466.33-8.25,455.02,31.06z"/>
			<text transform="matrix(0.9289 0 0 1 193.1992 684.084)" class="st10 st11 st12">KAVACHAM</text>
		</g>
	</g>
</g>
</svg>
